<?xml version="1.0" encoding="UTF-8" standalone="no"?>
<!-- Created with Inkscape (http://www.inkscape.org/) -->

<svg
   xmlns:dc="http://purl.org/dc/elements/1.1/"
   xmlns:cc="http://creativecommons.org/ns#"
   xmlns:rdf="http://www.w3.org/1999/02/22-rdf-syntax-ns#"
   xmlns:svg="http://www.w3.org/2000/svg"
   xmlns="http://www.w3.org/2000/svg"
   xmlns:sodipodi="http://sodipodi.sourceforge.net/DTD/sodipodi-0.dtd"
   xmlns:inkscape="http://www.inkscape.org/namespaces/inkscape"
   width="13.01695mm"
   height="12.95058mm"
   viewBox="0 0 46.12305 45.88788"
   id="svg2"
   version="1.1"
   inkscape:version="0.91 r13725"
   sodipodi:docname="screenshare_full.svg">
  <defs
     id="defs4" />
  <sodipodi:namedview
     id="base"
     pagecolor="#ffffff"
     bordercolor="#666666"
     borderopacity="1.0"
     inkscape:pageopacity="0.0"
     inkscape:pageshadow="2"
     inkscape:zoom="5.6"
     inkscape:cx="5.3004444"
     inkscape:cy="6.5476348"
     inkscape:document-units="px"
     inkscape:current-layer="layer1"
     showgrid="false"
     fit-margin-top="0"
     fit-margin-left="0"
     fit-margin-right="0"
     fit-margin-bottom="0"
     inkscape:window-width="1920"
     inkscape:window-height="1057"
     inkscape:window-x="1042"
     inkscape:window-y="596"
     inkscape:window-maximized="1" />
  <metadata
     id="metadata7">
    <rdf:RDF>
      <cc:Work
         rdf:about="">
        <dc:format>image/svg+xml</dc:format>
        <dc:type
           rdf:resource="http://purl.org/dc/dcmitype/StillImage" />
        <dc:title></dc:title>
      </cc:Work>
    </rdf:RDF>
  </metadata>
  <g
     inkscape:label="Layer 1"
     inkscape:groupmode="layer"
     id="layer1"
     transform="translate(102.19448,-501.55866)">
    <g
       id="g4220"
       style="fill:#000000;fill-opacity:1">
      <path
         id="path4147"
         d="m -73.035718,516.4693 a 4.7321424,4.7321424 0 0 1 -4.732142,4.73214 4.7321424,4.7321424 0 0 1 -4.732143,-4.73214 4.7321424,4.7321424 0 0 1 4.732143,-4.73214 4.7321424,4.7321424 0 0 1 4.732142,4.73214 z"
         style="fill:#000000;fill-opacity:1;stroke:none;stroke-width:3;stroke-miterlimit:4;stroke-dasharray:none;stroke-opacity:1" />
      <path
         id="path4147-4"
         d="m -56.339288,506.2908 a 4.7321424,4.7321424 0 0 1 -4.732142,4.73214 4.7321424,4.7321424 0 0 1 -4.732143,-4.73214 4.7321424,4.7321424 0 0 1 4.732143,-4.73214 4.7321424,4.7321424 0 0 1 4.732142,4.73214 z"
         style="fill:#000000;fill-opacity:1;stroke:none;stroke-width:3;stroke-miterlimit:4;stroke-dasharray:none;stroke-opacity:1" />
      <path
         id="path4147-6"
         d="m -56.071431,525.93359 a 4.7321424,4.7321424 0 0 1 -4.732143,4.73215 4.7321424,4.7321424 0 0 1 -4.732142,-4.73215 4.7321424,4.7321424 0 0 1 4.732142,-4.73214 4.7321424,4.7321424 0 0 1 4.732143,4.73214 z"
         style="fill:#000000;fill-opacity:1;stroke:none;stroke-width:3;stroke-miterlimit:4;stroke-dasharray:none;stroke-opacity:1" />
      <path
         inkscape:connector-curvature="0"
         id="path4172"
         d="m -64.230469,506.45117 -11.785156,6.42774 1.675781,3.07226 11.785156,-6.42773 -1.675781,-3.07227 z"
         style="color:#000000;font-style:normal;font-variant:normal;font-weight:normal;font-stretch:normal;font-size:medium;line-height:normal;font-family:sans-serif;text-indent:0;text-align:start;text-decoration:none;text-decoration-line:none;text-decoration-style:solid;text-decoration-color:#000000;letter-spacing:normal;word-spacing:normal;text-transform:none;direction:ltr;block-progression:tb;writing-mode:lr-tb;baseline-shift:baseline;text-anchor:start;white-space:normal;clip-rule:nonzero;display:inline;overflow:visible;visibility:visible;opacity:1;isolation:auto;mix-blend-mode:normal;color-interpolation:sRGB;color-interpolation-filters:linearRGB;solid-color:#000000;solid-opacity:1;fill:#000000;fill-opacity:1;fill-rule:evenodd;stroke:none;stroke-width:3.5;stroke-linecap:butt;stroke-linejoin:miter;stroke-miterlimit:4;stroke-dasharray:none;stroke-dashoffset:0;stroke-opacity:1;color-rendering:auto;image-rendering:auto;shape-rendering:auto;text-rendering:auto;enable-background:accumulate" />
      <path
         inkscape:connector-curvature="0"
         id="path4172-0"
         d="m -73.847656,517.03516 -1.707032,3.05468 11.716797,6.55078 1.708985,-3.05468 -11.71875,-6.55078 z"
         style="color:#000000;font-style:normal;font-variant:normal;font-weight:normal;font-stretch:normal;font-size:medium;line-height:normal;font-family:sans-serif;text-indent:0;text-align:start;text-decoration:none;text-decoration-line:none;text-decoration-style:solid;text-decoration-color:#000000;letter-spacing:normal;word-spacing:normal;text-transform:none;direction:ltr;block-progression:tb;writing-mode:lr-tb;baseline-shift:baseline;text-anchor:start;white-space:normal;clip-rule:nonzero;display:inline;overflow:visible;visibility:visible;opacity:1;isolation:auto;mix-blend-mode:normal;color-interpolation:sRGB;color-interpolation-filters:linearRGB;solid-color:#000000;solid-opacity:1;fill:#000000;fill-opacity:1;fill-rule:evenodd;stroke:none;stroke-width:3.5;stroke-linecap:butt;stroke-linejoin:miter;stroke-miterlimit:4;stroke-dasharray:none;stroke-dashoffset:0;stroke-opacity:1;color-rendering:auto;image-rendering:auto;shape-rendering:auto;text-rendering:auto;enable-background:accumulate" />
      <path
         sodipodi:nodetypes="cssssssccccccc"
         inkscape:connector-curvature="0"
         id="rect4189"
         d="m -74.817328,507.57924 -26.248242,0 c -0.607,0 -1.12891,0.51996 -1.12891,1.12696 l 0,31.50781 c 0,0.607 0.52191,1.1289 1.12891,1.1289 l 41.953125,0 c 0.606997,0 1.126954,-0.5219 1.126954,-1.1289 l 0,-7.6371 -2.060547,0.0474 0,6.65615 -40.085942,0 0,-29.64062 25.308148,0 z"
         style="color:#000000;font-style:normal;font-variant:normal;font-weight:normal;font-stretch:normal;font-size:medium;line-height:normal;font-family:sans-serif;text-indent:0;text-align:start;text-decoration:none;text-decoration-line:none;text-decoration-style:solid;text-decoration-color:#000000;letter-spacing:normal;word-spacing:normal;text-transform:none;direction:ltr;block-progression:tb;writing-mode:lr-tb;baseline-shift:baseline;text-anchor:start;white-space:normal;clip-rule:nonzero;display:inline;overflow:visible;visibility:visible;opacity:1;isolation:auto;mix-blend-mode:normal;color-interpolation:sRGB;color-interpolation-filters:linearRGB;solid-color:#000000;solid-opacity:1;fill:#000000;fill-opacity:1;fill-rule:nonzero;stroke:none;stroke-width:2.06119132;stroke-linecap:butt;stroke-linejoin:miter;stroke-miterlimit:4;stroke-dasharray:none;stroke-dashoffset:0;stroke-opacity:1;color-rendering:auto;image-rendering:auto;shape-rendering:auto;text-rendering:auto;enable-background:accumulate" />
      <path
         sodipodi:nodetypes="ccsccscsssccsscccc"
         inkscape:connector-curvature="0"
         id="path4191"
         d="m -83.115234,540.13188 -0.126954,0.26134 c 0,0 -0.792498,1.63147 -1.492187,3.26761 -0.349845,0.81807 -0.676235,1.63584 -0.873047,2.26807 -0.09841,0.31611 -0.165762,0.58011 -0.183594,0.80696 -0.0089,0.11343 -0.01477,0.21587 0.03711,0.34999 0.02594,0.0671 0.06989,0.14884 0.173828,0.22773 0.10394,0.0789 0.277458,0.13296 0.419922,0.13296 l 11.033203,0 c 0.135083,0 0.304113,-0.0452 0.412109,-0.12073 0.107996,-0.0755 0.158261,-0.16128 0.1875,-0.23078 0.05848,-0.139 0.0526,-0.24421 0.04297,-0.35917 -0.01927,-0.2299 -0.09331,-0.49337 -0.199219,-0.80849 -0.211823,-0.63025 -0.563363,-1.44372 -0.939453,-2.25736 -0.75218,-1.62731 -1.603515,-3.24774 -1.603515,-3.24774 l -0.13086,-0.25064 -6.041016,-0.0398 z"
         style="color:#000000;font-style:normal;font-variant:normal;font-weight:normal;font-stretch:normal;font-size:medium;line-height:normal;font-family:sans-serif;text-indent:0;text-align:start;text-decoration:none;text-decoration-line:none;text-decoration-style:solid;text-decoration-color:#000000;letter-spacing:normal;word-spacing:normal;text-transform:none;direction:ltr;block-progression:tb;writing-mode:lr-tb;baseline-shift:baseline;text-anchor:start;white-space:normal;clip-rule:nonzero;display:inline;overflow:visible;visibility:visible;opacity:1;isolation:auto;mix-blend-mode:normal;color-interpolation:sRGB;color-interpolation-filters:linearRGB;solid-color:#000000;solid-opacity:1;fill:#000000;fill-opacity:1;fill-rule:evenodd;stroke:none;stroke-width:1.03851533px;stroke-linecap:butt;stroke-linejoin:miter;stroke-miterlimit:4;stroke-dasharray:none;stroke-dashoffset:0;stroke-opacity:1;color-rendering:auto;image-rendering:auto;shape-rendering:auto;text-rendering:auto;enable-background:accumulate" />
    </g>
  </g>
</svg>
