<svg xmlns:rdf="http://www.w3.org/1999/02/22-rdf-syntax-ns#" viewBox="0 0 46.12305 45.88788">
	<g class="screenschare" transform="translate(102.19 -501.56)">
		<path d="m-73.036 516.47a4.7321 4.7321 0 0 1 -4.7321 4.7321 4.7321 4.7321 0 0 1 -4.7321 -4.7321 4.7321 4.7321 0 0 1 4.7321 -4.7321 4.7321 4.7321 0 0 1 4.7321 4.7321z"/>
		<path  d="m-56.339 506.29a4.7321 4.7321 0 0 1 -4.7321 4.7321 4.7321 4.7321 0 0 1 -4.7321 -4.7321 4.7321 4.7321 0 0 1 4.7321 -4.7321 4.7321 4.7321 0 0 1 4.7321 4.7321z"/>
		<path  d="m-56.071 525.93a4.7321 4.7321 0 0 1 -4.7321 4.7322 4.7321 4.7321 0 0 1 -4.7321 -4.7322 4.7321 4.7321 0 0 1 4.7321 -4.7321 4.7321 4.7321 0 0 1 4.7321 4.7321z"/>
		<path d="m-64.23 506.45-11.785 6.4277 1.6758 3.0723 11.785-6.4277-1.6758-3.0723z"/>
		<path d="m-73.848 517.04-1.707 3.0547 11.717 6.5508 1.709-3.0547-11.719-6.5508z" />
		<path d="m-74.817 507.58h-26.248c-0.607 0-1.1289 0.51996-1.1289 1.127v31.508c0 0.607 0.52191 1.1289 1.1289 1.1289h41.953c0.607 0 1.127-0.5219 1.127-1.1289v-7.6371l-2.0605 0.0474v6.6562h-40.086v-29.641h25.308z" />
		<path d="m-83.115 540.13-0.12695 0.26134s-0.7925 1.6315-1.4922 3.2676c-0.34984 0.81807-0.67624 1.6358-0.87305 2.2681-0.09841 0.31611-0.16576 0.58011-0.18359 0.80696-0.0089 0.11343-0.01477 0.21587 0.03711 0.34999 0.02594 0.0671 0.06989 0.14884 0.17383 0.22773 0.10394 0.0789 0.27746 0.13296 0.41992 0.13296h11.033c0.13508 0 0.30411-0.0452 0.41211-0.12073 0.108-0.0755 0.15826-0.16128 0.1875-0.23078 0.05848-0.139 0.0526-0.24421 0.04297-0.35917-0.01927-0.2299-0.09331-0.49337-0.19922-0.80849-0.21182-0.63025-0.56336-1.4437-0.93945-2.2574-0.75218-1.6273-1.6035-3.2477-1.6035-3.2477l-0.13086-0.25064-6.041-0.0398z" />
	</g>
</svg>
